<?xml version="1.0" standalone="no"?>
<!DOCTYPE svg PUBLIC "-//W3C//DTD SVG 20010904//EN"
 "http://www.w3.org/TR/2001/REC-SVG-20010904/DTD/svg10.dtd">
<svg version="1.0" xmlns="http://www.w3.org/2000/svg"
 width="337.000000pt" height="337.000000pt" viewBox="0 0 337.000000 337.000000"
 preserveAspectRatio="xMidYMid meet">
<metadata>
Created by potrace 1.11, written by Peter Selinger 2001-2013
</metadata>
<g transform="translate(0.000000,337.000000) scale(0.100000,-0.100000)"
fill="#000000" stroke="none">
<path d="M1575 3359 c-116 -26 -260 -123 -330 -223 -11 -15 -24 -34 -30 -40
-38 -46 -92 -178 -102 -249 -10 -79 -6 -158 10 -173 13 -13 7 -43 -11 -56 -31
-21 -40 -50 -37 -108 4 -85 26 -146 71 -199 26 -31 77 -64 86 -56 2 3 12 -13
21 -34 18 -40 79 -111 95 -111 5 0 15 -6 21 -14 9 -11 9 -16 -1 -22 -7 -5 -16
-9 -19 -9 -3 0 -32 -13 -64 -30 -56 -29 -185 -142 -185 -163 0 -6 -4 -12 -9
-14 -12 -5 -151 -176 -151 -187 0 -5 -4 -11 -8 -13 -5 -1 -26 -25 -47 -53 -20
-27 -51 -58 -67 -68 -16 -9 -35 -31 -42 -48 -7 -17 -44 -62 -81 -100 -38 -39
-69 -80 -70 -92 -1 -12 -12 -44 -24 -71 -12 -27 -19 -60 -17 -75 2 -14 5 -32
5 -38 2 -24 136 -153 158 -153 12 0 25 -4 28 -10 11 -18 53 -11 107 19 37 20
63 27 84 24 41 -6 90 20 110 59 16 30 16 43 1 191 -1 9 -4 17 -8 17 -9 0 -6
21 5 39 5 7 10 26 11 41 1 15 21 53 45 84 23 31 43 56 44 56 0 0 2 -33 2 -72
1 -40 4 -84 8 -98 4 -14 8 -29 9 -35 2 -5 5 -14 9 -20 6 -11 3 -107 -6 -145
-5 -22 -25 -129 -41 -230 -4 -19 -8 -42 -9 -50 -1 -8 -6 -35 -11 -60 -4 -25
-9 -54 -11 -65 -3 -11 -7 -36 -10 -55 -3 -19 -7 -42 -9 -50 -2 -8 -7 -31 -11
-50 -3 -19 -7 -39 -8 -45 -7 -33 -49 -95 -68 -100 -13 -4 -35 -21 -51 -37 -30
-33 -71 -107 -63 -115 2 -3 1 -15 -4 -28 -5 -13 -6 -26 -2 -30 7 -6 7 -10 10
-50 1 -11 13 -33 27 -48 14 -15 23 -27 20 -27 -3 0 -1 -9 5 -20 18 -33 57 -43
185 -45 126 -2 198 11 245 44 14 10 39 21 55 26 17 5 33 9 38 10 4 2 10 3 15
4 4 0 20 30 36 66 29 67 30 79 24 260 -2 62 5 110 33 253 6 29 12 67 15 85 2
17 6 44 9 59 4 15 8 40 11 57 2 17 6 44 8 61 7 49 16 70 36 80 16 8 22 6 35
-13 8 -13 17 -37 19 -53 2 -16 8 -56 14 -89 6 -33 14 -76 17 -95 3 -19 7 -46
10 -60 3 -14 7 -38 10 -55 3 -16 7 -41 10 -55 19 -97 21 -134 13 -272 -2 -34
1 -58 6 -58 6 0 5 -5 -1 -11 -8 -8 -5 -27 15 -73 33 -80 37 -84 86 -98 22 -6
48 -17 56 -23 46 -36 130 -53 253 -50 62 2 119 5 127 8 8 3 25 8 38 12 12 4
22 14 22 21 0 8 0 16 0 19 0 2 12 17 25 31 14 15 26 33 26 40 1 8 2 23 3 33 0
11 4 22 7 26 8 7 -13 104 -26 126 -22 34 -69 78 -91 83 -44 11 -66 70 -104
286 -11 63 -22 124 -24 135 -2 11 -7 43 -11 70 -5 28 -9 52 -10 55 -1 6 -16
84 -22 120 -2 14 -7 34 -10 45 -11 33 -11 109 0 123 5 6 7 12 4 12 -3 0 1 22
8 50 7 27 12 79 11 115 -1 36 -1 65 0 65 1 0 21 -25 44 -55 24 -30 44 -69 46
-86 2 -16 8 -38 14 -49 7 -13 7 -27 -1 -47 -17 -43 -20 -152 -4 -189 13 -31
38 -52 73 -59 9 -2 22 -4 27 -6 6 -1 18 1 29 6 10 4 21 4 25 -1 3 -5 25 -19
48 -31 44 -24 88 -30 98 -13 3 6 16 10 28 10 19 0 65 39 130 110 44 48 45 96
7 184 -12 25 -19 50 -16 54 2 4 -29 41 -70 82 -41 41 -74 82 -74 91 0 10 -15
29 -32 43 -18 15 -37 30 -43 34 -5 5 -21 24 -35 42 -165 222 -300 374 -365
413 -16 10 -54 29 -84 42 l-54 25 46 35 c49 37 87 85 91 113 2 9 16 23 32 31
78 36 134 134 140 241 3 52 -1 72 -16 98 -11 18 -26 32 -34 32 -13 0 -13 4 0
35 19 46 23 114 11 179 -5 28 -9 59 -10 69 -1 9 -5 17 -9 17 -4 0 -8 9 -8 19
0 23 -58 127 -102 185 -29 37 -89 98 -133 135 -26 21 -126 70 -170 82 -51 15
-188 19 -240 8z"/>
</g>
</svg>
